<svg class="icon" style="width: 1em;height: 1em;vertical-align: middle;fill: currentColor;overflow: hidden;"
  viewBox="0 0 1024 1024" version="1.1" xmlns="http://www.w3.org/2000/svg" p-id="1019">
  <path
    d="M820.2752 331.1616c0 21.76-11.1616 41.984-29.6448 53.4528-47.7184 29.6448-148.9408 81.5616-272.3328 81.5616S293.7344 414.2592 245.9648 384.6144a62.83264 62.83264 0 0 1-29.6448-53.4528V170.2912c0-34.816 28.2112-63.0272 63.0272-63.0272h477.9008c34.816 0 63.0272 28.2112 63.0272 63.0272v160.8704z"
    fill="#FF5A5A" p-id="1020"></path>
  <path
    d="M757.248 107.264h-82.5344c34.816 0 63.0272 28.2112 63.0272 63.0272v160.8704c0 21.76-11.1616 41.984-29.6448 53.4528-42.2912 26.2656-126.5664 69.9904-231.0656 79.616 13.4656 1.2288 27.1872 1.9456 41.2672 1.9456 123.392 0 224.6144-51.9168 272.3328-81.5616 18.4832-11.4688 29.6448-31.6928 29.6448-53.4528V170.2912c0-34.816-28.2112-63.0272-63.0272-63.0272z"
    fill="#FF4436" p-id="1021"></path>
  <path
    d="M414.2592 274.2784c-8.4992 0-15.36-6.8608-15.36-15.36V107.264c0-8.4992 6.8608-15.36 15.36-15.36s15.36 6.8608 15.36 15.36v151.6032a15.4112 15.4112 0 0 1-15.36 15.4112zM631.7568 274.2784c-8.4992 0-15.36-6.8608-15.36-15.36V107.264c0-8.4992 6.8608-15.36 15.36-15.36s15.36 6.8608 15.36 15.36v151.6032c0 8.4992-6.8608 15.4112-15.36 15.4112z"
    fill="#FFFFFF" p-id="1022"></path>
  <path
    d="M518.2976 481.536c-126.5152 0-229.9904-52.5312-280.4224-83.8656-23.0912-14.336-36.9152-39.2192-36.9152-66.5088V170.2912c0-43.2128 35.1744-78.3872 78.3872-78.3872h477.9008c43.2128 0 78.3872 35.1744 78.3872 78.3872v160.8704c0 27.2896-13.7728 52.1728-36.864 66.5088-50.432 31.3344-153.9584 83.8656-280.4736 83.8656z m-238.9504-358.912c-26.2656 0-47.6672 21.4016-47.6672 47.6672v160.8704c0 16.5888 8.3456 31.6928 22.3744 40.3968 47.6672 29.5936 145.3568 79.2576 264.2432 79.2576s216.576-49.664 264.2432-79.2576c14.0288-8.704 22.3744-23.808 22.3744-40.3968V170.2912c0-26.2656-21.4016-47.6672-47.6672-47.6672H279.3472z"
    fill="#333333" p-id="1023"></path>
  <path d="M518.2976 624.5376m-295.5776 0a295.5776 295.5776 0 1 0 591.1552 0 295.5776 295.5776 0 1 0-591.1552 0Z"
    fill="#F1D000" p-id="1024"></path>
  <path
    d="M518.2976 328.96c-14.6944 0-29.0816 1.1264-43.1616 3.1744 142.7456 20.8896 252.3648 143.8208 252.3648 292.4032s-109.6192 271.5136-252.3648 292.4032c14.08 2.048 28.5184 3.1744 43.1616 3.1744 163.2256 0 295.5776-132.352 295.5776-295.5776 0-163.2768-132.3008-295.5776-295.5776-295.5776z"
    fill="#F2B200" p-id="1025"></path>
  <path
    d="M518.2976 935.4752c-171.4688 0-310.9376-139.4688-310.9376-310.9376 0-171.4688 139.4688-310.9376 310.9376-310.9376 171.4688 0 310.9376 139.4688 310.9376 310.9376 0 171.4176-139.4688 310.9376-310.9376 310.9376z m0-591.1552c-154.5216 0-280.2176 125.696-280.2176 280.2176s125.696 280.2176 280.2176 280.2176 280.2176-125.696 280.2176-280.2176-125.696-280.2176-280.2176-280.2176z"
    fill="#333333" p-id="1026"></path>
  <path
    d="M303.9232 573.952c-1.4848 0-3.0208-0.2048-4.5056-0.6656a15.4368 15.4368 0 0 1-10.1888-19.2 239.744 239.744 0 0 1 68.4032-107.3152 15.37536 15.37536 0 0 1 21.7088 1.0752 15.37536 15.37536 0 0 1-1.0752 21.7088 209.00864 209.00864 0 0 0-59.648 93.5936 15.4368 15.4368 0 0 1-14.6944 10.8032zM405.8112 445.8496c-5.2736 0-10.4448-2.7648-13.312-7.6288a15.3344 15.3344 0 0 1 5.5808-20.992c7.68-4.5056 15.7184-8.5504 23.808-12.1344a15.3088 15.3088 0 0 1 20.224 7.8848c3.4304 7.7824-0.1024 16.8448-7.8848 20.224-7.0656 3.1232-14.0288 6.656-20.736 10.5472-2.4064 1.4336-5.0688 2.0992-7.68 2.0992z"
    fill="#FFFFFF" p-id="1027"></path>
  <path
    d="M531.3536 490.8032l34.6112 70.0928a14.3872 14.3872 0 0 0 10.9568 7.936l77.3632 11.264c11.9296 1.7408 16.6912 16.384 8.0384 24.7808l-55.9616 54.5792c-3.4304 3.328-4.9664 8.1408-4.1984 12.8512l13.2096 77.056c2.048 11.8784-10.4448 20.9408-21.0944 15.3088l-69.2224-36.4032c-4.2496-2.2016-9.2672-2.2016-13.5168 0l-69.2224 36.4032c-10.6496 5.5808-23.0912-3.4304-21.0944-15.3088l13.2096-77.056c0.8192-4.7104-0.768-9.5232-4.1984-12.8512L374.272 604.8768c-8.6016-8.3968-3.84-23.04 8.0384-24.7808l77.3632-11.264c4.7104-0.6656 8.8064-3.6352 10.9568-7.936l34.6112-70.0928c5.376-10.8032 20.7872-10.8032 26.112 0z"
    fill="#FFFCE3" p-id="1028"></path>
  <path
    d="M471.3472 728.2688c-4.2496-2.2016-9.2672-2.2016-13.5168 0l-36.1984 19.0464-0.3584 2.048c-2.048 11.8784 10.4448 20.9408 21.0944 15.3088l49.1008-25.8048-20.1216-10.5984zM662.272 604.8768c8.6016-8.3968 3.84-23.04-8.0384-24.7808l-77.3632-11.264c-4.7104-0.6656-8.8064-3.6352-10.9568-7.936l-34.6112-70.0928c-5.3248-10.8032-20.736-10.8032-26.0608 0l-13.824 28.0576 20.736 42.0352a14.3872 14.3872 0 0 0 10.9568 7.936l77.3632 11.264c11.9296 1.7408 16.6912 16.384 8.0384 24.7808l-55.9616 54.5792c-3.4304 3.328-4.9664 8.1408-4.1984 12.8512l12.8512 75.008 33.024 17.3568c10.6496 5.5808 23.0912-3.4304 21.0944-15.3088l-13.2096-77.056c-0.8192-4.7104 0.768-9.5232 4.1984-12.8512l55.9616-54.5792z"
    fill="#FDF5B5" p-id="1029"></path>
  <path
    d="M435.5584 781.7216c-6.1952 0-12.288-1.9456-17.5104-5.7344a29.696 29.696 0 0 1-11.8784-29.2352l13.1584-76.5952-55.6544-54.272c-8.192-7.9872-11.1104-19.7632-7.5776-30.6176s12.8-18.688 24.1152-20.3264l76.9536-11.1616L491.52 483.9936c5.0688-10.2912 15.36-16.64 26.8288-16.64a29.696 29.696 0 0 1 26.7776 16.64l34.4064 69.7344 76.9536 11.1616c11.3152 1.6384 20.5824 9.4208 24.1152 20.3264 3.5328 10.9056 0.6656 22.6304-7.5776 30.6176l-55.6544 54.272 13.1584 76.6464a29.696 29.696 0 0 1-11.8784 29.2352 29.58848 29.58848 0 0 1-31.488 2.2528l-68.8128-36.1984L449.4848 778.24c-4.4032 2.3552-9.1648 3.4816-13.9264 3.4816z m82.7392-70.4512c4.7616 0 9.5744 1.1264 13.9264 3.4304l67.6864 35.584-12.9536-75.4176a29.7984 29.7984 0 0 1 8.6016-26.4704l54.784-53.4016-75.7248-11.008a29.91104 29.91104 0 0 1-22.4768-16.3328l-33.8432-68.608-33.8432 68.608a29.78816 29.78816 0 0 1-22.528 16.3328l-75.6736 11.008 54.784 53.4016a29.9008 29.9008 0 0 1 8.6016 26.4704l-12.9536 75.3664 67.6864-35.584c4.4032-2.2528 9.1648-3.3792 13.9264-3.3792z m133.7344-115.968z"
    fill="#333333" p-id="1030"></path>
</svg>